<svg width="17" height="17" viewBox="0 0 17 17" fill="none" xmlns="http://www.w3.org/2000/svg">
<path d="M5.72905 7.28395H1.58342C1.16368 7.28356 0.761227 7.11613 0.464376 6.81839C0.167526 6.52065 0.000519306 6.11693 0 5.6958V1.58815C0.000519306 1.16702 0.167526 0.763298 0.464376 0.465561C0.761227 0.167823 1.16368 0.000390578 1.58342 0H5.72905C6.14871 0.000520773 6.55103 0.168011 6.84778 0.465734C7.14452 0.763458 7.31146 1.16711 7.31198 1.58815V5.6958C7.31146 6.11684 7.14452 6.52049 6.84778 6.81822C6.55103 7.11594 6.14871 7.28343 5.72905 7.28395ZM1.58342 1.22998C1.48873 1.23011 1.39796 1.26787 1.33096 1.335C1.26396 1.40213 1.2262 1.49315 1.22594 1.58815V5.6958C1.2262 5.7908 1.26396 5.88182 1.33096 5.94895C1.39796 6.01608 1.48873 6.05384 1.58342 6.05397H5.72905C5.82369 6.05384 5.91442 6.01606 5.98134 5.94892C6.04826 5.88178 6.08591 5.79075 6.08604 5.6958V1.58815C6.08591 1.4932 6.04826 1.40217 5.98134 1.33503C5.91442 1.26789 5.82369 1.23011 5.72905 1.22998H1.58342Z" fill="black" fill-opacity="0.9"/>
<path d="M5.74858 16.9739H1.60295C1.18316 16.9734 0.780714 16.8058 0.483878 16.508C0.187041 16.2102 0.0200503 15.8064 0.0195312 15.3852V11.2781C0.0200506 10.857 0.187057 10.4532 0.483907 10.1555C0.780758 9.85776 1.18321 9.69033 1.60295 9.68994H5.74858C6.16807 9.69072 6.57014 9.85833 6.86667 10.156C7.1632 10.4537 7.33001 10.8572 7.33053 11.2781V15.3852C7.33014 15.8062 7.16339 16.2098 6.86685 16.5076C6.5703 16.8054 6.16815 16.9731 5.74858 16.9739ZM1.60295 10.9199C1.50827 10.9201 1.41749 10.9578 1.35049 11.0249C1.28349 11.0921 1.24573 11.1831 1.24547 11.2781V15.3852C1.2456 15.4803 1.2833 15.5715 1.35032 15.6387C1.41733 15.706 1.50818 15.7438 1.60295 15.7439H5.74858C5.84326 15.7437 5.93399 15.7058 6.0009 15.6385C6.0678 15.5713 6.10544 15.4802 6.10557 15.3852V11.2781C6.10544 11.1831 6.06779 11.0921 6.00087 11.025C5.93395 10.9578 5.84322 10.9201 5.74858 10.9199H1.60295Z" fill="black" fill-opacity="0.9"/>
<path d="M15.3345 16.9739H11.1889C10.7691 16.9734 10.3667 16.8058 10.0698 16.508C9.77298 16.2102 9.60599 15.8064 9.60547 15.3852V11.2781C9.60599 10.857 9.77299 10.4532 10.0698 10.1555C10.3667 9.85776 10.7691 9.69033 11.1889 9.68994H15.3345C15.7542 9.69046 16.1565 9.85795 16.4532 10.1557C16.75 10.4534 16.9169 10.857 16.9174 11.2781V15.3852C16.9171 15.8064 16.7502 16.2102 16.4534 16.508C16.1567 16.8058 15.7543 16.9734 15.3345 16.9739ZM11.1889 10.9224C11.0942 10.9225 11.0034 10.9603 10.9364 11.0274C10.8694 11.0945 10.8317 11.1856 10.8314 11.2806V15.3877C10.8315 15.4828 10.8692 15.5739 10.9363 15.6412C11.0033 15.7084 11.0941 15.7462 11.1889 15.7464H15.3345C15.4292 15.7461 15.5199 15.7082 15.5868 15.641C15.6537 15.5738 15.6914 15.4827 15.6915 15.3877V11.2781C15.6914 11.1831 15.6537 11.0921 15.5868 11.025C15.5199 10.9578 15.4292 10.9201 15.3345 10.9199L11.1889 10.9224Z" fill="black" fill-opacity="0.9"/>
<path d="M13.2659 7.28396C12.5493 7.27861 11.8504 7.06055 11.2572 6.65727C10.664 6.25399 10.2031 5.68353 9.93261 5.01782C9.66209 4.3521 9.59406 3.62094 9.73711 2.91649C9.88016 2.21205 10.2279 1.56587 10.7364 1.0594C11.245 0.552937 11.8916 0.208867 12.5948 0.0705674C13.2979 -0.0677324 14.0262 0.00592932 14.6877 0.282266C15.3492 0.558603 15.9143 1.02524 16.3119 1.62336C16.7094 2.22148 16.9216 2.9243 16.9216 3.64321C16.9168 4.612 16.5293 5.53934 15.8439 6.22185C15.1586 6.90435 14.2315 7.28631 13.2659 7.28396ZM13.2659 1.23245C12.7918 1.23779 12.3299 1.3837 11.9383 1.65182C11.5468 1.91994 11.243 2.29829 11.0653 2.73925C10.8875 3.1802 10.8438 3.66405 10.9395 4.1299C11.0352 4.59574 11.2662 5.02276 11.6033 5.35721C11.9404 5.69166 12.3685 5.91859 12.8339 6.00944C13.2993 6.10029 13.781 6.05099 14.2185 5.86776C14.656 5.68453 15.0297 5.37555 15.2925 4.9797C15.5554 4.58386 15.6956 4.11886 15.6957 3.64321C15.6918 3.00012 15.4338 2.38485 14.9782 1.93242C14.5227 1.47999 13.9068 1.22737 13.2659 1.22999V1.23245Z" fill="black" fill-opacity="0.9"/>
</svg>
