<svg xmlns="http://www.w3.org/2000/svg" width="31" height="23" fill="none" viewBox="0 0 31 23"><path fill="#FFEDED" d="M20.5765 0.000855296C18.801 2.0608e-06 17.0551 0.503278 15.5068 1.46229C13.9207 0.483745 12.1304 -0.0201436 10.3134 0.000616488C8.49634 0.0213766 6.71582 0.566063 5.14846 1.58063C3.5811 2.5952 2.28138 4.04439 1.37826 5.7844C0.475132 7.52442 0 9.49479 0 11.5C0 13.5052 0.475132 15.4756 1.37826 17.2156C2.28138 18.9556 3.5811 20.4048 5.14846 21.4194C6.71582 22.4339 8.49634 22.9786 10.3134 22.9994C12.1304 23.0201 13.9207 22.5163 15.5068 21.5377C16.8969 22.3934 18.4462 22.8861 20.0358 22.9782C21.6253 23.0703 23.2128 22.7592 24.6765 22.0688C26.1401 21.3785 27.441 20.3272 28.4791 18.9957C29.5173 17.6643 30.2652 16.088 30.6654 14.3879C31.0655 12.6878 31.1074 10.9091 30.7877 9.18842C30.468 7.46771 29.7953 5.85071 28.8211 4.46157C27.847 3.07242 26.5974 1.94806 25.1682 1.1748C23.739 0.401543 22.1682 -4.82636e-05 20.5765 0.000855296ZM12.7884 19.1157C12.0335 19.414 11.2389 19.5717 10.4371 19.5823C8.49485 19.5823 6.63212 18.7309 5.25872 17.2153C3.88532 15.6997 3.11375 13.6442 3.11375 11.5009C3.11375 9.35752 3.88532 7.30197 5.25872 5.78641C6.63212 4.27084 8.49485 3.4194 10.4371 3.4194C11.2389 3.42997 12.0335 3.58766 12.7884 3.88604C11.0925 5.98097 10.155 8.69172 10.155 11.5009C10.155 14.31 11.0925 17.0207 12.7884 19.1157ZM15.5068 17.309C14.7945 16.5595 14.2275 15.6583 13.8401 14.66C13.4526 13.6616 13.2529 12.5869 13.2529 11.5009C13.2529 10.4148 13.4526 9.34007 13.8401 8.34172C14.2275 7.34336 14.7945 6.44218 15.5068 5.69274C16.2191 6.44218 16.7861 7.34336 17.1736 8.34172C17.561 9.34007 17.7607 10.4148 17.7607 11.5009C17.7607 12.5869 17.561 13.6616 17.1736 14.66C16.7861 15.6583 16.2191 16.5595 15.5068 17.309ZM20.5765 19.5823C19.7742 19.5719 18.979 19.4142 18.2236 19.1157C19.9196 17.0207 20.857 14.31 20.857 11.5009C20.857 8.69172 19.9196 5.98097 18.2236 3.88604C18.979 3.58748 19.7742 3.42978 20.5765 3.4194C22.5188 3.4194 24.3815 4.27084 25.7549 5.78641C27.1283 7.30197 27.8999 9.35752 27.8999 11.5009C27.8999 13.6442 27.1283 15.6997 25.7549 17.2153C24.3815 18.7309 22.5188 19.5823 20.5765 19.5823Z"/></svg>