<svg width="7" height="27" viewBox="0 0 7 27" fill="none" xmlns="http://www.w3.org/2000/svg">
<path d="M6.43148 12.9685H4.00649V7.8022H4.90333C5.19447 7.8022 5.43051 7.56615 5.43051 7.27501C5.43051 6.98387 5.19452 6.74782 4.90333 6.74782H4.00649V6.11524H4.90333C5.19447 6.11524 5.43051 5.87919 5.43051 5.58805C5.43051 5.29691 5.19452 5.06087 4.90333 5.06087H4.00649V4.42828H4.90333C5.19447 4.42828 5.43051 4.19224 5.43051 3.9011C5.43051 3.60996 5.19452 3.37391 4.90333 3.37391H4.00649V2.74133H4.90333C5.19447 2.74133 5.43051 2.50528 5.43051 2.21414C5.43051 1.923 5.19452 1.68696 4.90333 1.68696H4.00649V1.05437H4.90333C5.19447 1.05437 5.43051 0.818328 5.43051 0.527187C5.43051 0.236045 5.19452 0 4.90333 0H2.05539C1.76425 0 1.5282 0.236045 1.5282 0.527187C1.5282 0.818328 1.7642 1.05437 2.05539 1.05437H2.95217V1.68696H2.05534C1.7642 1.68696 1.52815 1.923 1.52815 2.21414C1.52815 2.50528 1.76414 2.74133 2.05534 2.74133H2.95217V3.37391H2.05534C1.7642 3.37391 1.52815 3.60996 1.52815 3.9011C1.52815 4.19224 1.76414 4.42828 2.05534 4.42828H2.95217V5.06087H2.05534C1.7642 5.06087 1.52815 5.29691 1.52815 5.58805C1.52815 5.87919 1.76414 6.11524 2.05534 6.11524H2.95217V6.74782H2.05534C1.7642 6.74782 1.52815 6.98387 1.52815 7.27501C1.52815 7.56615 1.76414 7.8022 2.05534 7.8022H2.95217V12.9685H0.527186C0.236045 12.9685 0 13.2046 0 13.4957V19.3844C0 21.9774 0.710403 24.52 2.05444 26.7374C2.15003 26.895 2.32091 26.9912 2.50528 26.9912H4.45338C4.63776 26.9912 4.80869 26.895 4.90422 26.7374C6.24826 24.52 6.95867 21.9773 6.95867 19.3844V13.4956C6.95861 13.2045 6.72262 12.9685 6.43148 12.9685ZM5.90429 19.3843C5.90429 21.6861 5.29939 23.9453 4.15254 25.9369H2.80597C1.65917 23.9452 1.05427 21.6861 1.05427 19.3843V16.3424H4.23104C4.52219 16.3424 4.75823 16.1063 4.75823 15.8152C4.75823 15.524 4.52224 15.288 4.23104 15.288H1.05427V14.0228H5.90424V19.3843H5.90429Z" fill="black"/>
</svg>
