<svg width="22" height="22" viewBox="0 0 22 22" fill="none" xmlns="http://www.w3.org/2000/svg">
<path d="M14.4153 13.3761V8.20389C14.4153 7.96658 14.2229 7.77421 13.9856 7.77421H13.6217L13.6155 4.05652C13.6155 4.05373 13.6155 4.05102 13.6154 4.04827C13.639 3.77977 13.6003 3.47922 13.498 3.15666C13.3003 2.5342 12.8788 1.87873 12.3111 1.31101C11.7434 0.743327 11.0879 0.321819 10.4655 0.124213C9.74662 -0.104072 9.13687 -0.0156882 8.74841 0.372821C8.51922 0.601965 8.39453 0.908149 8.3776 1.26826C8.37717 1.2747 8.37691 1.28123 8.37678 1.28776C8.37524 1.33043 8.37519 1.37387 8.37665 1.418V7.77421H8.01315C7.77584 7.77421 7.58348 7.96658 7.58348 8.20389V13.3761C7.35365 13.3846 7.16992 13.5735 7.16992 13.8054V20.4724C7.16992 21.3148 7.85516 22 8.69749 22H13.3012C14.1436 22 14.8288 21.3148 14.8288 20.4724V13.8054C14.8289 13.5735 14.6451 13.3846 14.4153 13.3761V13.3761ZM8.44287 8.63356H13.556V13.3758H8.44287V8.63356ZM9.73313 0.860283C9.87015 0.860283 10.0308 0.887825 10.2054 0.943253C10.6921 1.09776 11.2381 1.45327 11.7034 1.91865C12.1688 2.38403 12.5243 2.93005 12.6789 3.4167C12.8015 3.80272 12.7875 4.12024 12.6417 4.26607C12.4958 4.41195 12.1783 4.42587 11.7923 4.30328C11.3056 4.14877 10.7596 3.79326 10.2942 3.32784C9.82882 2.86247 9.4733 2.31644 9.31879 1.82984C9.26569 1.66248 9.23823 1.50806 9.236 1.37486V1.34027C9.2387 1.18254 9.27892 1.0575 9.35605 0.980419C9.43592 0.900586 9.56723 0.860283 9.73313 0.860283V0.860283ZM9.23604 3.42822C9.37298 3.60262 9.52375 3.77268 9.68659 3.93553C10.2543 4.50321 10.9098 4.92472 11.5322 5.12237C11.7939 5.20542 12.0409 5.24654 12.2683 5.24654C12.4443 5.24654 12.6084 5.22184 12.7581 5.17285C12.7594 5.95107 12.7611 6.97593 12.7624 7.77421H9.23604V3.42822ZM13.9695 20.4724C13.9695 20.8409 13.6697 21.1407 13.3013 21.1407H8.69749C8.32905 21.1407 8.02926 20.8409 8.02926 20.4724V14.2351H13.9695V20.4724H13.9695Z" fill="black"/>
<path d="M9.34569 16.4668H12.6514C12.8887 16.4668 13.0811 16.2744 13.0811 16.0371C13.0811 15.7998 12.8887 15.6074 12.6514 15.6074H9.34569C9.10838 15.6074 8.91602 15.7998 8.91602 16.0371C8.91602 16.2744 9.10838 16.4668 9.34569 16.4668V16.4668Z" fill="black"/>
</svg>
