<svg width="47" height="16" viewBox="0 0 47 16" fill="none" xmlns="http://www.w3.org/2000/svg">
<path d="M34.1631 0.653958C33.0693 0.215008 31.9143 -0.0063225 30.7512 0.000137427C26.9956 0.000137427 24.3416 2.10671 24.3254 5.12146C24.2946 7.33728 26.2069 8.58623 27.6522 9.33299C29.1371 10.0977 29.6335 10.5738 29.6262 11.2521C29.6188 12.2972 28.4394 12.7635 27.354 12.7635C25.8456 12.7635 25.0275 12.5352 23.7658 11.9483L23.2973 11.7021L22.7627 15.1848C23.6807 15.6005 25.3257 15.9658 27.0235 16C31.0244 16 33.6329 13.9114 33.6623 10.6912C33.6931 8.92536 32.6694 7.58511 30.4883 6.47965C29.1723 5.76713 28.3483 5.28125 28.3483 4.5508C28.3483 3.90513 29.0519 3.22685 30.5206 3.22685C31.4953 3.19974 32.4644 3.39912 33.3656 3.81219L33.7254 3.98991L34.2527 0.636024L34.1631 0.653958ZM43.9259 0.288732H40.9884C40.0704 0.288732 39.3889 0.561021 38.9836 1.57192L33.3377 15.7783H37.3312L38.1361 13.4516L43.0079 13.4597C43.1298 14.0027 43.4735 15.7766 43.4735 15.7766H47L43.9259 0.288732ZM18.9175 0.161555H22.7201L20.3407 15.6576H16.5381L18.9175 0.153402V0.161555ZM9.24872 8.69547L9.63794 10.8526L13.3627 0.288732H17.3944L11.396 15.7522H7.38194L4.09194 2.65781C4.06673 2.54904 4.02182 2.44712 3.95996 2.35825C3.89809 2.26939 3.82056 2.19545 3.73209 2.14095C2.55031 1.45861 1.29665 0.942133 0 0.603413L0.0455313 0.27895H6.1805C7.00741 0.31319 7.68009 0.603414 7.90922 1.58822L9.24872 8.70362V8.69547ZM39.22 10.2836L40.7431 5.94485C40.7196 5.98562 41.056 5.05298 41.2469 4.46601L41.5069 5.79811L42.3881 10.2738H39.22V10.2836Z" fill="white"/>
</svg>
